HIERARCHY
ROOT Hips
{
 OFFSET 0.000000 0.000000 0.000000
 CHANNELS 6 Xposition Yposition Zposition Yrotation Xrotation Zrotation
 JOINT Chest
 {
  OFFSET 0.000000 9.585900 0.002600
  CHANNELS 3 Yrotation Xrotation Zrotation
  JOINT Chest2
  {
   OFFSET 0.000000 9.601200 -0.005300
   CHANNELS 3 Yrotation Xrotation Zrotation
   JOINT Chest3
   {
    OFFSET 0.000000 9.561800 0.000000
    CHANNELS 3 Yrotation Xrotation Zrotation
    JOINT Chest4
    {
     OFFSET 0.000000 9.552100 0.000000
     CHANNELS 3 Yrotation Xrotation Zrotation
     JOINT Neck
     {
      OFFSET 0.000000 14.453000 0.000000
      CHANNELS 3 Yrotation Xrotation Zrotation
      JOINT Head
      {
       OFFSET 0.000000 8.936500 -0.011300
       CHANNELS 3 Yrotation Xrotation Zrotation
       End Site
       {
        OFFSET 0.000000 17.073600 -0.006000
       }
      }
     }
     JOINT RightCollar
     {
      OFFSET -2.921100 9.558500 0.000000
      CHANNELS 3 Yrotation Xrotation Zrotation
      JOINT RightShoulder
      {
       OFFSET -13.519700 0.000000 0.000000
       CHANNELS 3 Yrotation Xrotation Zrotation
       JOINT RightElbow
       {
        OFFSET 0.000000 -29.696600 0.000000
        CHANNELS 3 Yrotation Xrotation Zrotation
        JOINT RightWrist
        {
         OFFSET 0.000000 -24.004700 0.000000
         CHANNELS 3 Yrotation Xrotation Zrotation
         End Site
         {
          OFFSET 0.000000 -17.728500 0.000000
         }
        }
       }
      }
     }
     JOINT LeftCollar
     {
      OFFSET 2.921100 9.558500 0.000000
      CHANNELS 3 Yrotation Xrotation Zrotation
      JOINT LeftShoulder
      {
       OFFSET 13.519700 0.000000 0.000000
       CHANNELS 3 Yrotation Xrotation Zrotation
       JOINT LeftElbow
       {
        OFFSET 0.000000 -29.696600 0.000000
        CHANNELS 3 Yrotation Xrotation Zrotation
        JOINT LeftWrist
        {
         OFFSET 0.000000 -24.004700 0.000000
         CHANNELS 3 Yrotation Xrotation Zrotation
         End Site
         {
          OFFSET 0.000000 -17.728500 0.000000
         }
        }
       }
      }
     }
    }
   }
  }
 }
 JOINT RightHip
 {
  OFFSET -7.771700 -0.012900 -0.001300
  CHANNELS 3 Yrotation Xrotation Zrotation
  JOINT RightKnee
  {
   OFFSET 0.000000 -40.869800 0.001200
   CHANNELS 3 Yrotation Xrotation Zrotation
   JOINT RightAnkle
   {
    OFFSET 0.000000 -39.717900 0.002100
    CHANNELS 3 Yrotation Xrotation Zrotation
    JOINT RightToe
    {
     OFFSET 0.000000 -4.965400 11.033500
     CHANNELS 3 Yrotation Xrotation Zrotation
     End Site
     {
      OFFSET 0.000000 -1.423100 5.872300
     }
    }
   }
  }
 }
 JOINT LeftHip
 {
  OFFSET 7.771700 -0.012900 -0.001300
  CHANNELS 3 Yrotation Xrotation Zrotation
  JOINT LeftKnee
  {
   OFFSET 0.000000 -40.869800 0.001200
   CHANNELS 3 Yrotation Xrotation Zrotation
   JOINT LeftAnkle
   {
    OFFSET 0.000000 -39.717900 0.002100
    CHANNELS 3 Yrotation Xrotation Zrotation
    JOINT LeftToe
    {
     OFFSET 0.000000 -4.965400 11.033500
     CHANNELS 3 Yrotation Xrotation Zrotation
     End Site
     {
      OFFSET 0.000000 -1.423100 5.872300
     }
    }
   }
  }
 }
}
MOTION
Frames: 5
Frame Time: 0.008333
0.000000 85.388000 0.000000 0.000000 -5.767877 0.000000 0.000000 11.653817 0.000000 0.000000 -5.885947 0.000000 0.000000 -0.000000 0.000000 0.000000 -0.000000 0.000000 0.000000 12.528835 0.000000 0.000000 0.711642 0.000000 0.000000 -0.000000 0.000000 0.000000 0.000000 -90.000000 0.000000 -2.309062 0.000000 0.000000 2.309062 0.000000 0.000000 -0.000000 0.000000 0.000000 -0.000000 90.000000 0.000000 -2.309062 0.000000 0.000000 2.309062 0.000000 0.000000 8.520406 0.000000 0.000000 1.905762 0.000000 -0.000000 -4.658285 0.000000 0.000000 -0.000000 0.000000 0.000000 8.520406 0.000000 0.000000 1.905762 0.000000 -0.000000 -4.658285 0.000000 0.000000 -0.000000 0.000000
-197.856977 58.051109 28.332431 172.832088 -50.707998 -3.369556 5.010629 21.568155 3.407197 2.622819 12.367197 1.792033 3.408416 15.460438 2.288121 2.633309 12.366962 1.776220 3.256431 17.332967 -3.499225 7.182132 -3.293390 -7.548867 1.305850 5.170008 1.288526 -7.709063 -16.004458 -7.407240 -71.702878 -56.965245 101.983180 -3.596882 12.668051 -16.511093 -9.642368 3.312200 -1.887622 11.203773 -17.779007 10.424188 59.663275 -45.506922 -92.137155 9.462201 4.257621 15.380334 3.988528 -21.653135 -0.367889 -37.962998 73.185391 -39.503211 5.803707 -12.812160 9.424579 -0.005321 -0.161430 0.031933 -3.009262 -20.412934 11.293000 52.100003 79.415402 51.032636 4.545419 -15.842215 -16.165295 0.035454 0.131365 0.029295
-197.856447 58.050981 28.329928 172.834068 -50.692547 -3.348670 5.039582 21.564033 3.384116 2.671167 12.380004 1.759236 3.394717 15.449944 2.296481 2.642919 12.367482 1.760028 2.991751 17.280716 -3.457197 6.684606 -3.418102 -7.387727 1.322933 5.049358 1.346170 -7.020945 -15.831865 -7.642649 -70.917021 -57.348343 101.501290 -2.906976 13.774934 -16.377775 -9.725089 3.263859 -1.926127 10.525484 -17.518747 10.857244 58.742544 -45.817470 -91.726179 9.314736 4.627737 15.195036 3.992207 -21.679687 -0.370823 -38.033993 73.195335 -39.593252 5.777354 -12.802963 9.430289 0.024929 -0.177896 0.035509 -3.052058 -20.407887 11.297185 52.077878 79.411211 50.953217 4.537822 -15.859660 -16.173526 0.040601 0.145113 0.040304
-197.857083 58.050718 28.326290 172.853827 -50.673348 -3.332807 5.060398 21.560488 3.358337 2.690632 12.390697 1.738962 3.371786 15.431847 2.310545 2.668422 12.385925 1.713164 2.716769 17.225760 -3.403437 6.164026 -3.548629 -7.201145 1.346055 4.890464 1.417696 -6.352390 -15.629942 -7.894073 -70.262436 -57.823888 101.123595 -2.160865 14.794694 -16.157859 -9.810721 3.218342 -1.967419 9.827601 -17.268176 11.283660 57.862382 -46.087229 -91.428843 9.268944 4.986766 14.939368 3.990608 -21.697925 -0.401629 -38.055348 73.205039 -39.624864 5.774480 -12.811144 9.439471 0.021545 -0.179130 0.025734 -3.076395 -20.420288 11.281325 52.064833 79.412930 50.911289 4.526599 -15.862206 -16.169885 0.046113 0.145123 0.043421
-197.856734 58.049069 28.322912 172.864006 -50.641589 -3.316860 5.129088 21.572866 3.347801 2.662545 12.369847 1.729738 3.358832 15.416245 2.316804 2.695824 12.406371 1.667911 2.431963 17.170342 -3.338979 5.621456 -3.680211 -6.990752 1.375288 4.718205 1.499771 -5.706184 -15.418303 -8.157869 -69.617180 -58.408259 100.730924 -1.418638 15.610999 -15.809817 -9.900372 3.177220 -2.005381 9.163022 -17.023098 11.673480 57.018130 -46.401237 -91.224455 9.293519 5.445432 14.599597 3.989704 -21.738168 -0.416785 -38.127357 73.211582 -39.712377 5.778785 -12.806754 9.448968 0.021885 -0.193159 0.025116 -3.092856 -20.447822 11.273331 52.145315 79.395859 50.963813 4.495369 -15.863614 -16.167787 0.045915 0.142708 0.044288
